<?xml version="1.0" standalone="no"?>
<!DOCTYPE svg PUBLIC "-//W3C//DTD SVG 20010904//EN"
 "http://www.w3.org/TR/2001/REC-SVG-20010904/DTD/svg10.dtd">
<svg version="1.0" xmlns="http://www.w3.org/2000/svg"
 width="144.000000pt" height="170.000000pt" viewBox="0 0 144.000000 170.000000"
 preserveAspectRatio="xMidYMid meet">
<metadata>
Created by potrace 1.10, written by Peter Selinger 2001-2011
</metadata>
<g transform="translate(0.000000,170.000000) scale(0.100000,-0.100000)"
fill="#de0d0d" stroke="none">
<path d="M642 1438 c-23 -11 -58 -39 -77 -61 -37 -43 -75 -131 -75 -172 0 -24
-3 -25 -65 -25 -90 0 -92 -3 -105 -220 -6 -96 -15 -242 -20 -325 -5 -82 -10
-180 -10 -218 0 -65 1 -68 32 -87 31 -19 52 -20 436 -20 412 0 430 2 459 39
15 20 16 102 3 280 -5 75 -14 222 -21 326 -6 105 -15 198 -20 208 -8 14 -23
17 -83 17 l-74 0 -7 53 c-12 90 -78 177 -162 212 -52 22 -158 19 -211 -7z
m174 -87 c52 -24 91 -74 100 -129 l7 -42 -167 0 c-185 0 -179 -3 -155 71 16
46 46 78 94 100 50 23 70 23 121 0z m9 -310 c56 -25 101 -66 133 -120 24 -41
27 -56 27 -136 0 -71 -4 -99 -21 -132 l-21 -42 34 -33 c19 -18 48 -50 64 -70
25 -31 28 -41 19 -58 -19 -36 -53 -24 -114 39 l-56 60 -49 -25 c-208 -104
-429 128 -341 358 54 141 204 214 325 159z"/>
<path d="M685 964 c-133 -49 -169 -233 -63 -334 30 -29 82 -50 122 -50 33 0
105 40 127 72 61 85 56 189 -12 263 -23 25 -54 46 -77 53 -47 14 -47 14 -97
-4z"/>
</g>
</svg>
